<svg xmlns="http://www.w3.org/2000/svg" width="420" height="420" viewBox="0 0 420 420" role="img" aria-label="animal_cat_selfie" >
  <defs>
    <filter id="paperNoise" x="-10%" y="-10%" width="120%" height="120%">
      <feTurbulence type="fractalNoise" baseFrequency="0.9" numOctaves="3" seed="17" result="noise"/>
      <feColorMatrix in="noise" type="saturate" values="0"/>
      <feComponentTransfer>
        <feFuncA type="table" tableValues="0 0.08"/>
      </feComponentTransfer>
    </filter>
    <filter id="softBleed" x="-12%" y="-12%" width="124%" height="124%">
      <feTurbulence type="fractalNoise" baseFrequency="0.035" numOctaves="2" seed="9" result="texture"/>
      <feDisplacementMap in="SourceGraphic" in2="texture" scale="3.2"/>
    </filter>
    <filter id="pencilRough" x="-8%" y="-8%" width="116%" height="116%">
      <feTurbulence type="fractalNoise" baseFrequency="0.08" numOctaves="2" seed="5" result="rough"/>
      <feDisplacementMap in="SourceGraphic" in2="rough" scale="1.1"/>
    </filter>
    
  </defs>
  
    <rect x="53" y="54" width="318" height="322" rx="32" fill="#FFF9EF" opacity="0.85" stroke="#74766F" stroke-width="5" filter="url(#softBleed)"/>
    <ellipse cx="212" cy="219" rx="104" ry="113" fill="#E9B9A4" opacity="0.18" filter="url(#softBleed)"/>
    <path d="M134 168 L159 109 L192 166 M235 166 L266 109 L289 171" fill="#F7EEDC" stroke="#3D4338" stroke-width="5" stroke-linejoin="round"/>
    <ellipse cx="212" cy="206" rx="92" ry="84" fill="#F7EEDC" stroke="#3D4338" stroke-width="5" filter="url(#softBleed)"/>
    <ellipse cx="213" cy="314" rx="86" ry="72" fill="#F7EEDC" stroke="#3D4338" stroke-width="5" filter="url(#softBleed)"/>
    <circle cx="181" cy="200" r="6" fill="#3D4338"/>
    <circle cx="242" cy="200" r="6" fill="#3D4338"/>
    <path d="M204 218 C211 226 218 226 224 218 M190 238 C205 252 231 252 246 238" fill="none" stroke="#3D4338" stroke-width="4" stroke-linecap="round"/>
    <path d="M129 305 C94 280 85 241 103 216" fill="none" stroke="#3D4338" stroke-width="10" stroke-linecap="round" opacity="0.75"/>
    <path d="M307 305 C349 278 356 237 333 211" fill="none" stroke="#3D4338" stroke-width="10" stroke-linecap="round" opacity="0.75"/>
    <circle cx="306" cy="116" r="20" fill="#D8B36A" opacity="0.4" filter="url(#softBleed)"/>
  
</svg>
