<svg xmlns="http://www.w3.org/2000/svg" width="420" height="420" viewBox="0 0 420 420" role="img" aria-label="animal_rabbit_home" >
  <defs>
    <filter id="paperNoise" x="-10%" y="-10%" width="120%" height="120%">
      <feTurbulence type="fractalNoise" baseFrequency="0.9" numOctaves="3" seed="17" result="noise"/>
      <feColorMatrix in="noise" type="saturate" values="0"/>
      <feComponentTransfer>
        <feFuncA type="table" tableValues="0 0.08"/>
      </feComponentTransfer>
    </filter>
    <filter id="softBleed" x="-12%" y="-12%" width="124%" height="124%">
      <feTurbulence type="fractalNoise" baseFrequency="0.035" numOctaves="2" seed="9" result="texture"/>
      <feDisplacementMap in="SourceGraphic" in2="texture" scale="3.2"/>
    </filter>
    <filter id="pencilRough" x="-8%" y="-8%" width="116%" height="116%">
      <feTurbulence type="fractalNoise" baseFrequency="0.08" numOctaves="2" seed="5" result="rough"/>
      <feDisplacementMap in="SourceGraphic" in2="rough" scale="1.1"/>
    </filter>
    
  </defs>
  
    <rect width="420" height="420" fill="none"/>
    <ellipse cx="208" cy="314" rx="125" ry="50" fill="#E9B9A4" opacity="0.12" filter="url(#softBleed)"/>
    <path d="M151 151 C136 98 147 47 178 41 C211 35 218 93 202 155" fill="#F7EEDC" stroke="#3D4338" stroke-width="5" filter="url(#softBleed)"/>
    <path d="M240 154 C224 93 236 35 270 42 C301 49 310 100 291 154" fill="#F7EEDC" stroke="#3D4338" stroke-width="5" filter="url(#softBleed)"/>
    <ellipse cx="211" cy="184" rx="99" ry="84" fill="#F7EEDC" stroke="#3D4338" stroke-width="5" filter="url(#softBleed)"/>
    <ellipse cx="210" cy="302" rx="96" ry="105" fill="#F7EEDC" stroke="#3D4338" stroke-width="5" filter="url(#softBleed)"/>
    <path d="M165 72 C183 99 184 121 177 146 M263 72 C248 101 249 122 258 146" stroke="#E9B9A4" stroke-width="10" stroke-linecap="round" opacity="0.34"/>
    <circle cx="176" cy="182" r="6" fill="#3D4338"/>
    <circle cx="244" cy="182" r="6" fill="#3D4338"/>
    <path d="M204 203 C210 210 218 210 224 203 M189 224 C204 237 235 237 250 224" fill="none" stroke="#3D4338" stroke-width="4" stroke-linecap="round"/>
    <circle cx="295" cy="309" r="26" fill="#FFF9EF" stroke="#3D4338" stroke-width="5" opacity="0.88"/>
    <path d="M169 367 C184 383 203 385 216 368 M227 368 C245 386 266 383 280 365" fill="none" stroke="#3D4338" stroke-width="5" stroke-linecap="round"/>
  
</svg>
