<svg xmlns="http://www.w3.org/2000/svg" width="720" height="720" viewBox="0 0 720 720" role="img" aria-label="cabin_room_base" >
  <defs>
    <filter id="paperNoise" x="-10%" y="-10%" width="120%" height="120%">
      <feTurbulence type="fractalNoise" baseFrequency="0.9" numOctaves="3" seed="17" result="noise"/>
      <feColorMatrix in="noise" type="saturate" values="0"/>
      <feComponentTransfer>
        <feFuncA type="table" tableValues="0 0.08"/>
      </feComponentTransfer>
    </filter>
    <filter id="softBleed" x="-12%" y="-12%" width="124%" height="124%">
      <feTurbulence type="fractalNoise" baseFrequency="0.035" numOctaves="2" seed="9" result="texture"/>
      <feDisplacementMap in="SourceGraphic" in2="texture" scale="3.2"/>
    </filter>
    <filter id="pencilRough" x="-8%" y="-8%" width="116%" height="116%">
      <feTurbulence type="fractalNoise" baseFrequency="0.08" numOctaves="2" seed="5" result="rough"/>
      <feDisplacementMap in="SourceGraphic" in2="rough" scale="1.1"/>
    </filter>
    
  </defs>
  
    <rect width="720" height="720" fill="#FFF9EF"/>
    <rect width="720" height="720" fill="#D8B36A" opacity="0.08" filter="url(#paperNoise)"/>
    <ellipse cx="360" cy="215" rx="310" ry="175" fill="#A9C9D8" opacity="0.22" filter="url(#softBleed)"/>
    <path d="M68 622 C175 588 548 592 655 624 L655 692 L68 692 Z" fill="#F7EEDC" opacity="0.92"/>
    <path d="M72 622 C202 585 510 589 650 621" fill="none" stroke="#DED6C7" stroke-width="4" stroke-linecap="round"/>
    <rect x="248" y="104" width="224" height="188" rx="28" fill="#DDEDF2" opacity="0.92" stroke="#74766F" stroke-width="5" filter="url(#pencilRough)"/>
    <path d="M360 107 L360 292 M250 198 L472 198" stroke="#74766F" stroke-width="4" stroke-linecap="round" opacity="0.85"/>
    <path d="M294 155 C320 132 349 135 373 160 C396 135 428 133 450 157" fill="none" stroke="#FFF9EF" stroke-width="8" stroke-linecap="round" opacity="0.9"/>
    <path d="M128 558 C130 444 172 350 246 289 C304 240 418 240 476 290 C550 353 591 444 593 558 Z" fill="#F7EEDC" opacity="0.74" stroke="#74766F" stroke-width="5" filter="url(#softBleed)"/>
    <path d="M118 559 L603 559" stroke="#74766F" stroke-width="5" stroke-linecap="round" opacity="0.8"/>
    <path d="M156 470 C242 439 480 438 565 470" fill="none" stroke="#8FAF95" stroke-width="11" stroke-linecap="round" opacity="0.35"/>
    <path d="M95 332 C142 282 192 258 257 238" fill="none" stroke="#E9B9A4" stroke-width="12" stroke-linecap="round" opacity="0.22"/>
    <path d="M618 339 C566 284 525 263 462 239" fill="none" stroke="#D8B36A" stroke-width="12" stroke-linecap="round" opacity="0.18"/>
    <circle cx="548" cy="175" r="23" fill="#D8B36A" opacity="0.34" filter="url(#softBleed)"/>
    <path d="M120 656 C252 633 465 634 610 657" fill="none" stroke="#DED6C7" stroke-width="3" stroke-linecap="round" opacity="0.55"/>
  
</svg>
